<!DOCTYPE svg PUBLIC "-//W3C//DTD SVG 20010904//EN" "http://www.w3.org/TR/2001/REC-SVG-20010904/DTD/svg10.dtd">
<svg version="1.0" xmlns="http://www.w3.org/2000/svg" width="4167px" height="1821px" viewBox="0 0 12000 5240" preserveAspectRatio="xMidYMid meet">
<g id="layer101" fill="#000000" stroke="none">
 <path d="M0 4870 l0 -369 46 49 c126 134 437 245 979 349 830 159 1807 249 3356 311 541 22 2699 8 3199 -20 102 -6 266 -15 365 -20 1043 -59 1670 -125 2440 -260 781 -136 1191 -343 1052 -531 -151 -205 -964 -400 -2202 -529 -873 -91 -1636 -131 -3053 -162 -309 -6 -561 -15 -560 -19 2 -4 104 -125 228 -270 124 -145 294 -345 379 -444 84 -99 165 -193 180 -210 14 -16 76 -88 136 -160 60 -71 112 -132 115 -135 3 -3 57 -66 120 -140 63 -74 117 -137 120 -140 3 -3 30 -34 60 -70 30 -36 57 -67 60 -70 3 -3 27 -32 55 -65 27 -33 62 -73 76 -90 15 -16 96 -111 180 -211 85 -99 280 -327 433 -507 l279 -327 931 0 c989 0 1012 1 1178 49 138 40 260 129 302 221 28 63 26 174 -5 255 -93 248 -300 403 -629 473 -105 22 -343 46 -405 41 -38 -4 -40 -6 -43 -39 -3 -35 24 -179 93 -505 20 -93 39 -187 42 -208 l6 -37 -734 2 -733 3 -38 160 c-69 292 -99 418 -158 660 -58 237 -75 309 -123 515 -44 184 -50 220 -43 228 12 12 1305 14 1741 3 410 -11 501 -19 775 -70 691 -129 1188 -368 1488 -716 154 -178 263 -422 297 -665 11 -81 13 211 14 1973 l1 2067 -6000 0 -6000 0 0 -370z"/>
 <path d="M7433 4985 c-136 -37 -262 -141 -328 -271 l-39 -79 -1 -151 0 -150 39 -78 c79 -161 216 -260 386 -279 110 -13 253 2 320 32 114 51 210 147 265 266 51 110 42 335 -17 447 -68 131 -208 238 -346 267 -72 15 -216 13 -279 -4z m204 -330 c21 -9 46 -23 57 -33 26 -23 56 -91 56 -128 0 -50 -29 -119 -65 -154 -61 -59 -172 -50 -222 18 -60 82 -56 201 8 258 59 53 106 64 166 39z"/>
 <path d="M3437 4968 c-26 -20 -385 -953 -372 -967 8 -7 365 -4 372 3 16 15 152 503 154 549 0 12 7 -4 15 -36 14 -58 87 -322 125 -448 l19 -67 143 -7 c78 -4 163 -4 189 0 54 8 57 -10 -25 205 -30 80 -102 269 -160 420 -57 151 -111 291 -120 311 l-15 36 -98 6 c-147 10 -208 8 -227 -5z"/>
 <path d="M4300 4485 l0 -495 180 0 180 0 0 495 0 495 -180 0 -180 0 0 -495z"/>
 <path d="M4978 4973 c-17 -4 -18 -36 -18 -495 l0 -491 262 7 c341 9 375 17 500 112 121 94 178 212 178 372 0 156 -41 253 -146 352 -102 95 -183 124 -387 140 -124 10 -357 11 -389 3z m412 -308 c109 -22 157 -87 147 -201 -8 -100 -60 -152 -169 -168 l-48 -7 0 196 c0 182 1 196 18 191 9 -2 33 -8 52 -11z"/>
 <path d="M6170 4485 l0 -495 330 0 330 0 0 135 0 135 -155 0 -155 0 0 45 0 45 135 0 135 0 0 125 0 125 -135 0 -135 0 0 55 0 55 155 0 155 0 0 135 0 135 -330 0 -330 0 0 -495z"/>
 <path d="M0 2218 l0 -2218 6000 0 6000 0 -1 518 c-1 458 -2 508 -14 437 -74 -460 -492 -746 -1305 -892 l-155 -28 -1685 0 -1685 0 -480 721 c-264 396 -492 736 -507 755 -17 21 -31 30 -36 24 -5 -6 -24 -100 -41 -210 -18 -110 -73 -443 -122 -740 -49 -297 -89 -543 -89 -547 0 -5 -1111 -8 -2469 -8 l-2469 0 -10 43 c-5 23 -35 141 -66 262 -70 271 -117 477 -110 484 3 3 420 7 927 9 l922 3 125 41 c69 22 148 55 175 73 143 92 194 207 161 364 -49 233 -222 393 -531 492 -130 41 -249 60 -417 66 -133 5 -148 4 -148 -11 0 -9 12 -60 26 -114 121 -457 157 -598 161 -623 5 -25 3 -26 -64 -32 -88 -9 -1168 -9 -1305 -1 l-105 7 -17 76 c-10 42 -67 276 -127 521 -61 245 -137 555 -170 690 -33 135 -62 253 -65 263 -5 16 40 17 858 17 1013 -1 1432 -10 1563 -35 50 -9 137 -26 195 -36 416 -79 736 -201 1015 -387 108 -73 331 -281 420 -392 165 -208 253 -405 290 -648 8 -52 16 -96 18 -98 2 -2 24 53 49 123 110 307 292 820 456 1288 33 94 71 202 85 240 56 159 143 402 212 595 86 242 126 362 122 367 -2 1 -183 7 -403 13 -1123 28 -1424 40 -2024 81 -908 61 -1762 166 -2283 278 -499 108 -777 224 -859 356 -17 29 -18 -31 -18 -2187z"/>
 </g>

</svg>