<!DOCTYPE svg PUBLIC "-//W3C//DTD SVG 20010904//EN" "http://www.w3.org/TR/2001/REC-SVG-20010904/DTD/svg10.dtd">
<svg version="1.0" xmlns="http://www.w3.org/2000/svg" width="1000px" height="437px" viewBox="0 0 10000 4370" preserveAspectRatio="xMidYMid meet">
<g id="layer101" fill="#1f191a" stroke="none">
 <path d="M3765 4350 c-1208 -39 -2182 -125 -2870 -255 -470 -88 -736 -178 -847 -286 -42 -40 -48 -50 -48 -87 0 -268 1141 -496 3005 -602 326 -18 673 -30 1164 -40 266 -5 486 -11 488 -13 2 -2 -28 -91 -66 -198 -38 -107 -147 -412 -241 -679 -94 -267 -220 -622 -279 -790 -60 -168 -126 -354 -147 -415 l-39 -110 -12 90 c-37 262 -154 475 -382 697 -123 120 -213 187 -351 261 -239 129 -493 207 -875 268 -137 22 -163 23 -1077 26 -516 2 -938 1 -938 -2 0 -3 72 -298 160 -654 88 -356 160 -650 160 -654 0 -4 279 -7 621 -7 586 0 620 1 615 18 -13 41 -166 627 -166 634 0 12 141 10 245 -3 311 -38 543 -164 630 -342 56 -116 63 -223 20 -306 -18 -37 -94 -105 -143 -130 -22 -11 -80 -33 -129 -48 l-88 -28 -770 -3 c-423 -1 -773 -6 -778 -11 -5 -5 30 -157 77 -340 47 -182 86 -333 86 -336 0 -9 4099 -5 4104 3 6 10 90 508 161 957 25 160 49 300 53 313 6 19 37 -23 204 -275 109 -164 302 -455 430 -648 l233 -350 1195 -3 c761 -2 1254 1 1356 8 735 48 1241 262 1404 594 77 156 88 314 35 521 -132 525 -639 880 -1470 1030 -323 58 -332 58 -1253 62 -819 4 -853 3 -848 -14 3 -10 25 -106 50 -213 25 -107 79 -332 120 -500 41 -168 89 -369 107 -447 l33 -143 614 0 614 0 -5 22 c-3 13 -33 157 -67 322 -51 245 -60 300 -49 308 17 11 193 2 318 -18 319 -50 528 -208 591 -449 23 -89 6 -167 -48 -227 -69 -76 -158 -118 -315 -149 -91 -18 -151 -19 -875 -19 l-777 1 -95 112 c-52 61 -149 175 -215 252 -66 77 -134 156 -150 176 -17 20 -340 400 -720 844 -379 445 -725 849 -767 899 l-77 91 332 7 c983 20 1416 37 1942 74 1495 104 2476 303 2591 526 68 132 -188 278 -666 379 -715 151 -1490 231 -2815 290 -304 13 -1955 20 -2300 9z m2697 -200 c120 -37 219 -129 269 -250 33 -78 33 -240 1 -320 -45 -112 -130 -197 -242 -242 -80 -32 -260 -32 -342 0 -109 44 -197 131 -240 240 -31 81 -32 243 0 322 47 117 148 212 267 250 82 26 203 26 287 0z m-3264 -170 c34 -91 103 -271 152 -401 50 -130 90 -239 90 -243 0 -3 -70 -5 -156 -4 l-157 3 -53 185 c-30 102 -59 210 -65 240 l-12 55 -18 -80 c-10 -44 -39 -152 -66 -240 l-49 -160 -157 -3 c-86 -1 -157 0 -157 4 0 12 255 686 300 792 10 22 12 23 147 20 l138 -3 63 -165z m682 -240 l0 -410 -150 0 -150 0 0 410 0 410 150 0 150 0 0 -410z m693 395 c97 -17 153 -44 222 -107 78 -71 117 -155 123 -262 8 -160 -49 -273 -183 -365 -83 -57 -120 -64 -372 -69 l-233 -4 0 404 c0 223 3 408 7 411 12 13 356 7 436 -8z m1117 -95 l0 -110 -130 0 -130 0 0 -45 0 -45 115 0 115 0 0 -105 0 -105 -115 0 -115 0 0 -40 0 -40 130 0 130 0 0 -110 0 -110 -275 0 -275 0 0 410 0 410 275 0 275 0 0 -110z"/>
 <path d="M6260 3878 c-60 -32 -83 -76 -77 -151 6 -70 40 -120 93 -137 70 -23 134 5 165 74 39 86 11 183 -63 216 -55 25 -65 25 -118 -2z"/>
 <path d="M4430 3740 l0 -163 51 5 c86 9 139 68 139 158 0 89 -48 142 -142 155 l-48 7 0 -162z"/>
 </g>

</svg>